<?xml version="1.0" encoding="iso-8859-1"?>
<!-- Generator: Adobe Illustrator 19.0.0, SVG Export Plug-In . SVG Version: 6.00 Build 0)  -->
<svg version="1.1" id="Capa_1" xmlns="http://www.w3.org/2000/svg" xmlns:xlink="http://www.w3.org/1999/xlink" x="0px" y="0px"
	 viewBox="0 0 512 512" style="enable-background:new 0 0 512 512;" xml:space="preserve">
<path style="fill:#FF525D;" d="M511.999,255.999c0,17.606-1.776,34.805-5.172,51.419c-2.853,14.033-6.865,27.648-11.922,40.751v0.01
	c-10.574,27.418-25.757,52.537-44.565,74.459c-6.154,7.168-12.695,13.981-19.592,20.428c-4.869,4.556-9.916,8.913-15.13,13.082
	c-20.219,16.144-42.945,29.299-67.49,38.766c-28.588,11.034-59.653,17.084-92.128,17.084c-60.363,0-115.847-20.898-159.618-55.85
	c-5.214-4.169-10.261-8.526-15.13-13.082c-6.896-6.447-13.437-13.26-19.592-20.428C23.219,377.865,0.001,319.633,0.001,255.999
	c0-7.92,0.355-15.757,1.066-23.5c2.57-28.212,9.707-55.108,20.689-79.934c10.198-23.061,23.698-44.324,39.904-63.206
	c12.403-14.451,26.394-27.502,41.691-38.88C145.973,18.766,198.792,0,256,0c32.465,0,63.519,6.039,92.107,17.074
	C387.96,32.444,423.005,57.5,450.34,89.359c11.797,13.74,22.162,28.755,30.856,44.795c4.671,8.599,8.85,17.492,12.518,26.645
	C505.51,190.233,511.999,222.364,511.999,255.999z"/>
<g>
	<path style="fill:#FFDC8D;" d="M124.776,219.179c0,7.356-5.956,13.322-13.322,13.322H1.061c2.57-28.212,9.707-55.108,20.689-79.934
		h68.984c3.678,0,7.011,1.494,9.425,3.908c2.403,2.403,3.897,5.736,3.897,9.414c0,7.356-5.966,13.322-13.322,13.322H47.799
		c-7.356,0-13.322,5.966-13.322,13.322s5.966,13.322,13.322,13.322h63.655c3.688,0,7.011,1.494,9.425,3.908
		C123.292,212.168,124.776,215.501,124.776,219.179z"/>
	<path style="fill:#FFDC8D;" d="M144.771,273.641L144.771,273.641c0-7.358-5.965-13.323-13.323-13.323H19.176
		c-7.358,0-13.322,5.965-13.322,13.323l0,0c0,7.358,5.965,13.323,13.322,13.323h36.316c7.358,0,13.322,5.965,13.322,13.322l0,0
		c0,7.358-5.965,13.322-13.322,13.322H51.79c-7.358,0-13.322,5.965-13.322,13.323l0,0c0,7.358,5.965,13.323,13.322,13.323h107.604
		c7.358,0,13.323-5.965,13.323-13.323l0,0c0-7.358,5.965-13.323,13.323-13.323h3.702c7.358,0,13.323-5.965,13.323-13.322l0,0
		c0-7.358-5.965-13.322-13.323-13.322h-31.648C150.736,286.963,144.771,280.999,144.771,273.641z"/>
</g>
<path style="fill:#5C5E70;" d="M450.333,24.871v397.77c-46.947,54.7-116.6,89.359-194.34,89.359s-147.393-34.659-194.34-89.359
	V24.871c0-13.73,11.128-24.868,24.868-24.868h338.943C439.195,0.002,450.333,11.141,450.333,24.871z"/>
<path style="fill:#FFD15C;" d="M430.745,85.463v357.604c-6.416,5.987-13.134,11.661-20.135,16.98
	c-42.956,32.601-96.527,51.952-154.613,51.952s-111.657-19.351-154.613-51.952c-7.001-5.319-13.719-10.992-20.135-16.98V85.463
	c0-8.192,6.635-14.827,14.827-14.827h319.842c0.899,0,1.776,0.084,2.623,0.24C425.479,72.109,430.745,78.17,430.745,85.463z"/>
<path style="fill:#494B5B;" d="M321.819,45.556h-131.65c-6.059,0-10.97-4.912-10.97-10.97l0,0c0-6.059,4.912-10.97,10.97-10.97
	h131.65c6.059,0,10.97,4.912,10.97,10.97l0,0C332.789,40.644,327.877,45.556,321.819,45.556z"/>
<path style="fill:#34ABE0;" d="M348.128,68.273v426.641c-28.588,11.034-59.653,17.084-92.128,17.084
	c-60.363,0-115.847-20.898-159.618-55.85c-5.214-4.169-10.261-8.526-15.13-13.082c-6.896-6.447-13.437-13.26-19.592-20.428
	C23.219,377.865,0.001,319.633,0.001,255.999V68.273c0-9.822,7.962-17.795,17.795-17.795h312.538
	c9.582,0,17.408,7.586,17.774,17.074C348.128,67.793,348.128,68.033,348.128,68.273z"/>
<circle style="fill:#FFD15C;" cx="122.064" cy="176.274" r="70.834"/>
<path style="fill:#FF525D;" d="M175.344,222.923c-12.974,14.817-32.034,24.168-53.276,24.168s-40.302-9.352-53.276-24.168
	c13.145-14.26,31.972-23.224,52.889-23.332c0.139,0.016,0.263,0.016,0.402,0.016c0.124,0,0.263,0,0.387-0.016
	C143.388,199.698,162.199,208.663,175.344,222.923z"/>
<path style="fill:#F2F2F2;" d="M122.083,139.411c19.189,0,34.744,15.554,34.744,34.744c0,19.02-15.279,34.448-34.215,34.722
	c-0.19,0-0.359,0-0.55,0c-0.169,0-0.359,0-0.529,0c-18.936-0.275-34.194-15.724-34.194-34.722
	C87.34,154.965,102.894,139.411,122.083,139.411z"/>
<g>
	<rect x="223.492" y="132.252" style="fill:#5C5E70;" width="88.252" height="17.031"/>
	<rect x="223.492" y="172.721" style="fill:#5C5E70;" width="88.252" height="17.031"/>
	<rect x="223.492" y="213.19" style="fill:#5C5E70;" width="88.252" height="17.031"/>
	<rect x="42.72" y="287.074" style="fill:#5C5E70;" width="269.018" height="17.031"/>
	<rect x="42.72" y="324.659" style="fill:#5C5E70;" width="227.223" height="17.031"/>
</g>
<g>
</g>
<g>
</g>
<g>
</g>
<g>
</g>
<g>
</g>
<g>
</g>
<g>
</g>
<g>
</g>
<g>
</g>
<g>
</g>
<g>
</g>
<g>
</g>
<g>
</g>
<g>
</g>
<g>
</g>
</svg>
