<svg id="Capa_1" enable-background="new 0 0 512 512" height="512" viewBox="0 0 512 512" width="512" xmlns="http://www.w3.org/2000/svg"><g><g><path d="m241 271h30v60h-30z" fill="#405580"/></g><path d="m256 271h15v60h-15z" fill="#283366"/><path d="m451 151v135h-390v-135l195-30z" fill="#405580"/><path d="m451 286v-135l-195-30v165z" fill="#283366"/><g><path d="m61 16h390v135h-390z" fill="#283366"/></g><path d="m256 16h195v135h-195z" fill="#1f1f59"/><g id="Sever_1_"><g><path d="m91 421h-30v-75h135v30h-105z" fill="#405580"/></g><g><path d="m451 421h-30v-45h-105v-30h135z" fill="#283366"/></g><g><path d="m121 196h30v30h-30z" fill="#80aaff"/></g><g><path d="m181 196h30v30h-30z" fill="#80aaff"/></g><g><path d="m241 196h30v30h-30z" fill="#80aaff"/></g><g><path d="m121 76h30v30h-30z" fill="#80aaff"/></g><g><path d="m181 76h30v30h-30z" fill="#80aaff"/></g><g><path d="m241 76h30v30h-30z" fill="#80aaff"/></g></g><g><path d="m151 496h-151v-90h151z" fill="#80aaff"/></g><g><path d="m331 406h-150v-90h150z" fill="#80aaff"/></g><g><path d="m512 496h-151v-90h151z" fill="#4d88ff"/></g><g fill="#4d88ff"><path d="m256 316h75v90h-75z"/><path d="m256 196h15v30h-15z"/><path d="m256 76h15v30h-15z"/></g></g></svg>