<svg id="Layer_1" enable-background="new 0 0 512 512" height="512" viewBox="0 0 512 512" width="512" xmlns="http://www.w3.org/2000/svg"><g><path d="m511.983 235.373c-.995-51.995-44.49-93.257-96.488-91.376-7.616.273-14.792-3.862-18.446-10.55-22.605-41.376-66.519-69.441-116.989-69.441-51.757 0-96.596 29.528-118.647 72.648-6.423 12.56-19.224 10.9-24.689 10.9-40.126 0-74.199 25.852-86.512 61.804-2.046 5.973-6.938 10.463-12.894 12.556-22.39 7.87-38.251 29.605-37.276 54.902 1.163 30.174 26.849 53.63 57.045 53.63h359.817c52.291.001 96.08-42.792 95.079-95.073z" fill="#9dc6fb"/><path d="m118.252 276.816c-.975-25.298 14.885-47.033 37.276-54.902 5.956-2.094 10.848-6.584 12.894-12.556 12.313-35.952 46.385-61.804 86.512-61.804 5.465 0 18.265 1.66 24.688-10.9 13.005-25.43 33.94-46.125 59.541-58.832-17.812-8.834-37.873-13.816-59.103-13.816-51.757 0-96.596 29.528-118.647 72.648-6.423 12.56-19.224 10.9-24.689 10.9-40.126 0-74.199 25.852-86.512 61.804-2.046 5.973-6.938 10.463-12.894 12.556-22.39 7.87-38.251 29.605-37.276 54.902 1.163 30.174 26.849 53.63 57.045 53.63h118.21c-30.196.001-55.881-23.456-57.045-53.63z" fill="#80b4fb"/><g><path d="m234.827 337.972h-71.422c-4.147 0-7.51-3.362-7.51-7.51s3.362-7.51 7.51-7.51h71.422c4.147 0 7.51 3.362 7.51 7.51s-3.363 7.51-7.51 7.51z"/></g><g><path d="m333.947 337.972h-15.117c-4.147 0-7.51-3.362-7.51-7.51s3.362-7.51 7.51-7.51h15.117c4.147 0 7.51 3.362 7.51 7.51s-3.363 7.51-7.51 7.51z" fill="#60b8fe"/></g><g><path d="m355.468 290.284h-213.476c-8.013 0-14.783 6.769-14.783 14.782v50.793c0 8.013 6.77 14.782 14.783 14.782h213.477c8.013 0 14.783-6.77 14.783-14.782v-50.793c-.001-8.013-6.771-14.782-14.784-14.782z" fill="#6e60b8"/></g><path d="m175.368 355.859v-50.793c0-8.013 6.769-14.782 14.782-14.782h-48.159c-8.013 0-14.783 6.769-14.783 14.782v50.793c0 8.013 6.77 14.782 14.783 14.782h48.159c-8.012 0-14.782-6.77-14.782-14.782z" fill="#6353b2"/><g><path d="m234.827 337.972h-71.422c-4.147 0-7.51-3.362-7.51-7.51s3.362-7.51 7.51-7.51h71.422c4.147 0 7.51 3.362 7.51 7.51s-3.363 7.51-7.51 7.51z" fill="#6353b2"/></g><g><path d="m333.947 337.972h-15.117c-4.147 0-7.51-3.362-7.51-7.51s3.362-7.51 7.51-7.51h15.117c4.147 0 7.51 3.362 7.51 7.51s-3.363 7.51-7.51 7.51z" fill="#80b4fb"/></g><g><path d="m234.827 259.617h-71.422c-4.147 0-7.51-3.362-7.51-7.51s3.362-7.51 7.51-7.51h71.422c4.147 0 7.51 3.362 7.51 7.51s-3.363 7.51-7.51 7.51z"/></g><g><path d="m333.947 259.617h-15.117c-4.147 0-7.51-3.362-7.51-7.51s3.362-7.51 7.51-7.51h15.117c4.147 0 7.51 3.362 7.51 7.51s-3.363 7.51-7.51 7.51z" fill="#60b8fe"/></g><g><path d="m355.468 212.931h-213.476c-8.013 0-14.783 6.769-14.783 14.782v48.79c0 8.013 6.769 14.782 14.783 14.782h213.476c8.013 0 14.783-6.769 14.783-14.782v-48.79c0-8.013-6.77-14.782-14.783-14.782z" fill="#8479c2"/></g><path d="m175.368 276.503v-48.79c0-8.013 6.769-14.782 14.783-14.782h-48.159c-8.013 0-14.783 6.769-14.783 14.782v48.79c0 8.013 6.77 14.782 14.783 14.782h48.159c-8.013 0-14.783-6.769-14.783-14.782z" fill="#6e60b8"/><g><path d="m234.827 259.617h-71.422c-4.147 0-7.51-3.362-7.51-7.51s3.362-7.51 7.51-7.51h71.422c4.147 0 7.51 3.362 7.51 7.51s-3.363 7.51-7.51 7.51z" fill="#6e60b8"/></g><g><path d="m333.947 259.617h-15.117c-4.147 0-7.51-3.362-7.51-7.51s3.362-7.51 7.51-7.51h15.117c4.147 0 7.51 3.362 7.51 7.51s-3.363 7.51-7.51 7.51z" fill="#80b4fb"/></g><g><path d="m289.38 337.972h-15.117c-4.147 0-7.51-3.362-7.51-7.51s3.362-7.51 7.51-7.51h15.117c4.147 0 7.51 3.362 7.51 7.51s-3.363 7.51-7.51 7.51z" fill="#60b8fe"/></g><g><path d="m289.38 337.972h-15.117c-4.147 0-7.51-3.362-7.51-7.51s3.362-7.51 7.51-7.51h15.117c4.147 0 7.51 3.362 7.51 7.51s-3.363 7.51-7.51 7.51z" fill="#80b4fb"/></g><g><path d="m289.38 259.617h-15.117c-4.147 0-7.51-3.362-7.51-7.51s3.362-7.51 7.51-7.51h15.117c4.147 0 7.51 3.362 7.51 7.51s-3.363 7.51-7.51 7.51z" fill="#60b8fe"/></g><g><path d="m289.38 259.617h-15.117c-4.147 0-7.51-3.362-7.51-7.51s3.362-7.51 7.51-7.51h15.117c4.147 0 7.51 3.362 7.51 7.51s-3.363 7.51-7.51 7.51z" fill="#80b4fb"/></g><g><path d="m355.468 369.64h-213.476c-8.013 0-14.783 6.769-14.783 14.782v48.79c0 8.013 6.769 14.782 14.783 14.782h213.476c8.013 0 14.783-6.769 14.783-14.782v-48.79c0-8.013-6.77-14.782-14.783-14.782z" fill="#8479c2"/></g><path d="m175.368 433.212v-48.79c0-8.013 6.769-14.782 14.783-14.782h-48.159c-8.013 0-14.783 6.769-14.783 14.782v48.79c0 8.013 6.77 14.782 14.783 14.782h48.159c-8.013 0-14.783-6.769-14.783-14.782z" fill="#6e60b8"/><g><path d="m234.827 416.326h-71.422c-4.147 0-7.51-3.362-7.51-7.51 0-4.147 3.362-7.51 7.51-7.51h71.422c4.147 0 7.51 3.362 7.51 7.51-.001 4.148-3.363 7.51-7.51 7.51z" fill="#6e60b8"/></g><g><path d="m333.947 416.326h-15.117c-4.147 0-7.51-3.362-7.51-7.51 0-4.147 3.362-7.51 7.51-7.51h15.117c4.147 0 7.51 3.362 7.51 7.51-.001 4.148-3.363 7.51-7.51 7.51z" fill="#80b4fb"/></g><g><path d="m289.38 416.326h-15.117c-4.147 0-7.51-3.362-7.51-7.51 0-4.147 3.362-7.51 7.51-7.51h15.117c4.147 0 7.51 3.362 7.51 7.51-.001 4.148-3.363 7.51-7.51 7.51z" fill="#80b4fb"/></g></g></svg>