<?xml version="1.0" encoding="iso-8859-1"?>
<!-- Generator: Adobe Illustrator 19.0.0, SVG Export Plug-In . SVG Version: 6.00 Build 0)  -->
<svg version="1.1" id="Capa_1" xmlns="http://www.w3.org/2000/svg" xmlns:xlink="http://www.w3.org/1999/xlink" x="0px" y="0px"
	 viewBox="0 0 512 512" style="enable-background:new 0 0 512 512;" xml:space="preserve">
<polygon style="fill:#FDB62F;" points="256,52.966 0,459.034 512,459.034 "/>
<path style="fill:#FFA230;" d="M365.374,226.428c-71.91,95.894-163.575,175.219-268.8,232.607H512L365.374,226.428z"/>
<g>
	<rect x="158.897" y="388.414" style="fill:#DE4C3C;" width="194.207" height="35.31"/>
	<path style="fill:#DE4C3C;" d="M321.942,247.172c-4.061-19.774,4.149-27.719,4.149-27.719c-12.641,0.45-23.887,8.148-28.866,19.774
		c-4.679,11.123-2.56,22.51-14.654,29.484c-5.879,3.478-13.188,3.478-19.068,0c-5.508-3.937-8.554-10.47-8.033-17.214
		c1.871-8.669,5.809-16.755,11.476-23.57c5.385-9.128,6.55-20.145,3.178-30.19c-3.143-9.64-7.636-18.794-13.33-27.189
		c-2.869-4.37-6.091-8.501-9.622-12.359c-1.942-2.207-7.592-5.561-8.828-8.121c8.828,20.215,0,44.668-13.33,60.822
		c-19.862,24.629-44.138,42.902-52.171,75.211c-5.782,22.095-2.878,45.568,8.121,65.589c12.244,20.63,33.518,34.242,57.379,36.723
		c-6.303-7.327-9.472-16.834-8.828-26.483c0-26.483,26.483-44.138,26.483-44.138s26.483,17.655,26.483,44.138
		c0.521,9.631-2.639,19.094-8.828,26.483c14.071-3.266,27.074-10.072,37.782-19.774c15.448-13.718,24.205-33.457,24.011-54.113
		C336.066,291.31,326.621,269.859,321.942,247.172z"/>
</g>
<g>
</g>
<g>
</g>
<g>
</g>
<g>
</g>
<g>
</g>
<g>
</g>
<g>
</g>
<g>
</g>
<g>
</g>
<g>
</g>
<g>
</g>
<g>
</g>
<g>
</g>
<g>
</g>
<g>
</g>
</svg>
