<?xml version="1.0" encoding="iso-8859-1"?>
<!-- Generator: Adobe Illustrator 19.0.0, SVG Export Plug-In . SVG Version: 6.00 Build 0)  -->
<svg version="1.1" id="Capa_1" xmlns="http://www.w3.org/2000/svg" xmlns:xlink="http://www.w3.org/1999/xlink" x="0px" y="0px"
	 viewBox="0 0 512.003 512.003" style="enable-background:new 0 0 512.003 512.003;" xml:space="preserve">
<circle style="fill:#4398D1;" cx="255.907" cy="255.907" r="255.907"/>
<path style="fill:#3E8CC7;" d="M369.124,26.473c62.459,126.789,10.307,280.192-116.482,342.651
	c-71.301,35.121-154.868,35.121-226.169,0c62.459,126.789,215.862,178.932,342.651,116.482s178.932-215.862,116.482-342.651
	C460.677,92.347,419.723,51.402,369.124,26.473z"/>
<path style="fill:#E5E5E5;" d="M411.393,264.732h100.422c0-2.912,0-5.824,0-8.824c0-3,0-5.912,0-8.824H411.481
	c-0.591-38.721-5.798-77.231-15.531-114.717h84.096c-3.353-6.001-6.971-11.913-10.766-17.649h-78.272
	c-10.148-33.753-23.941-66.298-41.122-97.068c-8.154-3.406-16.493-6.354-24.973-8.824l1.941,3.353
	c19.29,32.227,34.636,66.651,45.71,102.539H264.732V0c-2.912,0-5.824,0-8.824,0c-3,0-5.912,0-8.824,0v114.717H139.514
	c11.278-35.183,26.65-68.91,45.799-100.51l2.824-4.942c-8.613,2.356-17.093,5.153-25.414,8.383
	c-17.331,30.762-31.291,63.306-41.651,97.068H42.534c-3.794,5.736-7.412,11.648-10.766,17.649h84.273
	c-9.848,37.468-15.178,75.978-15.884,114.717H0c0,2.912,0,5.824,0,8.824c0,3,0,5.912,0,8.824h100.157
	c0.697,38.739,6.054,77.258,15.972,114.717H31.768c3.353,6.001,6.971,11.913,10.766,17.649h78.537
	c10.36,33.762,24.32,66.306,41.651,97.068c8.207,3.177,16.678,6.001,25.238,8.824l-3.265-5.206
	c-18.928-31.688-34.089-65.477-45.181-100.686h107.569v114.717c2.912,0,5.824,0,8.824,0c3,0,5.912,0,8.824,0V397.098h106.863
	c-10.986,34.547-25.97,67.683-44.651,98.745l-4.5,7.148c8.586-2.268,17.04-5.012,25.326-8.207
	c17.649-30.912,31.856-63.668,42.357-97.686h79.42c3.794-5.736,7.412-11.648,10.766-17.649h-85.155
	C405.154,341.998,410.608,303.488,411.393,264.732z M247.083,379.449H134.307c-10.236-37.407-15.752-75.943-16.413-114.717h129.189
	V379.449z M247.083,247.083H117.894c0.715-38.774,6.221-77.302,16.413-114.717h112.776V247.083z M376.89,379.449H264.732V264.732
	h129.013C392.932,303.524,387.267,342.06,376.89,379.449z M264.732,247.083V132.366h112.952
	c10.104,37.424,15.522,75.96,16.149,114.717H264.732z"/>
<rect x="407.412" y="345.026" transform="matrix(-0.7071 0.7071 -0.7071 -0.7071 1043.8699 432.3876)" style="fill:#FDB62F;" width="49.946" height="174.721"/>
<rect x="363.29" y="363.292" transform="matrix(-0.7071 0.7071 -0.7071 -0.7071 937.3501 388.2657)" style="fill:#FFA230;" width="49.946" height="49.946"/>
<circle style="fill:#FDB62F;" cx="317.678" cy="317.678" r="97.068"/>
<circle style="fill:#87CED9;" cx="317.678" cy="317.678" r="61.771"/>
<path style="fill:#71C4D1;" d="M289.352,372.478c30.374,15.54,67.586,3.512,83.126-26.861c9.036-17.666,9.036-38.598,0-56.264
	L289.352,372.478z"/>
<path style="fill:#DE4C3C;" d="M57.976,71.213l30.885,52.329l30.356-52.946c9.751-16.881,3.962-38.466-12.919-48.216
	c-5.48-3.168-11.719-4.8-18.055-4.73l0,0C68.751,17.613,52.92,33.391,52.885,52.885C52.867,59.344,54.632,65.68,57.976,71.213z"/>
<rect x="79.243" y="44.122" style="fill:#126099;" width="17.649" height="17.649"/>
<path style="fill:#DE4C3C;" d="M145.691,256.525l30.797,52.329l30.356-52.946c9.751-16.881,3.962-38.474-12.919-48.216
	c-5.303-3.062-11.313-4.695-17.437-4.73l0,0c-19.493-0.327-35.562,15.204-35.889,34.698
	C140.484,244.303,142.249,250.842,145.691,256.525z"/>
<rect x="167.046" y="229.434" style="fill:#126099;" width="17.649" height="17.649"/>
<path style="fill:#DE4C3C;" d="M251.583,115.335l30.797,52.329l30.356-52.946c9.751-16.881,3.962-38.474-12.919-48.216
	c-5.303-3.062-11.313-4.695-17.437-4.73l0,0c-19.493-0.327-35.562,15.204-35.889,34.698
	C246.377,103.113,248.142,109.652,251.583,115.335z"/>
<rect x="272.938" y="88.244" style="fill:#126099;" width="17.649" height="17.649"/>
<g>
</g>
<g>
</g>
<g>
</g>
<g>
</g>
<g>
</g>
<g>
</g>
<g>
</g>
<g>
</g>
<g>
</g>
<g>
</g>
<g>
</g>
<g>
</g>
<g>
</g>
<g>
</g>
<g>
</g>
</svg>
