<svg height="512pt" viewBox="0 -26 512 511" width="512pt" xmlns="http://www.w3.org/2000/svg"><path d="m185.378906 371.257812h105.929688v70.621094h-105.929688zm0 0" fill="#7f8c8d"/><path d="m476.691406 300.636719v52.96875c0 19.5-15.8125 35.308593-35.3125 35.308593h-406.070312c-19.5 0-35.308594-15.808593-35.308594-35.308593v-52.96875zm0 0" fill="#95a5a5"/><path d="m388.414062 459.535156h-273.65625v-8.828125c0-14.625 11.859376-26.484375 26.484376-26.484375h220.6875zm0 0" fill="#95a5a5"/><path d="m476.691406 35.808594v282.484375h-476.691406v-282.484375c0-19.5 15.808594-35.308594 35.308594-35.308594h406.070312c19.5 0 35.3125 15.808594 35.3125 35.308594zm0 0" fill="#2980ba"/><path d="m472.804688 19.832031c-256.265626 51.378907-432.460938 248.761719-472.804688 297.753907v-281.777344c0-19.5 15.808594-35.308594 35.308594-35.308594h406.070312c13.292969-.035156 25.460938 7.453125 31.425782 19.332031zm0 0" fill="#3b97d3"/><g fill="#e6e7e8"><path d="m70.621094 265.328125h-26.484375c-4.875 0-8.828125 3.953125-8.828125 8.828125s3.953125 8.828125 8.828125 8.828125h26.484375c4.875 0 8.828125-3.953125 8.828125-8.828125s-3.953125-8.828125-8.828125-8.828125zm0 0"/><path d="m44.136719 212.363281h97.105469c4.875 0 8.828124-3.953125 8.828124-8.828125s-3.953124-8.828125-8.828124-8.828125h-97.105469c-4.875 0-8.828125 3.953125-8.828125 8.828125s3.953125 8.828125 8.828125 8.828125zm0 0"/><path d="m176.550781 212.363281h123.585938c4.875 0 8.828125-3.953125 8.828125-8.828125s-3.953125-8.828125-8.828125-8.828125h-123.585938c-4.875 0-8.828125 3.953125-8.828125 8.828125s3.953125 8.828125 8.828125 8.828125zm0 0"/><path d="m44.136719 247.671875h61.792969c4.875 0 8.828124-3.953125 8.828124-8.828125s-3.953124-8.828125-8.828124-8.828125h-61.792969c-4.875 0-8.828125 3.953125-8.828125 8.828125s3.953125 8.828125 8.828125 8.828125zm0 0"/><path d="m141.242188 230.015625c-4.875 0-8.828126 3.953125-8.828126 8.828125s3.953126 8.828125 8.828126 8.828125h132.414062c4.875 0 8.828125-3.953125 8.828125-8.828125s-3.953125-8.828125-8.828125-8.828125zm0 0"/><path d="m335.449219 265.328125h-229.519531c-4.875 0-8.828126 3.953125-8.828126 8.828125s3.953126 8.828125 8.828126 8.828125h229.519531c4.875 0 8.828125-3.953125 8.828125-8.828125s-3.953125-8.828125-8.828125-8.828125zm0 0"/><path d="m300.136719 238.84375c0 4.875 3.953125 8.828125 8.828125 8.828125h26.484375c4.875 0 8.828125-3.953125 8.828125-8.828125s-3.953125-8.828125-8.828125-8.828125h-26.484375c-4.875 0-8.828125 3.953125-8.828125 8.828125zm0 0"/></g><path d="m44.136719 44.636719h88.277343c4.875 0 8.828126 3.953125 8.828126 8.828125v105.933594c0 4.875-3.953126 8.824218-8.828126 8.824218h-88.277343c-4.875 0-8.828125-3.949218-8.828125-8.824218v-105.933594c0-4.875 3.953125-8.828125 8.828125-8.828125zm0 0" fill="#f0c419"/><path d="m194.207031 44.636719h88.277344c4.875 0 8.824219 3.953125 8.824219 8.828125v105.933594c0 4.875-3.949219 8.824218-8.824219 8.824218h-88.277344c-4.875 0-8.828125-3.949218-8.828125-8.824218v-105.933594c0-4.875 3.953125-8.828125 8.828125-8.828125zm0 0" fill="#f29c1f"/><path d="m344.277344 44.636719h88.273437c4.875 0 8.828125 3.953125 8.828125 8.828125v105.933594c0 4.875-3.953125 8.824218-8.828125 8.824218h-88.273437c-4.875 0-8.828125-3.949218-8.828125-8.824218v-105.933594c0-4.875 3.953125-8.828125 8.828125-8.828125zm0 0" fill="#f0c419"/><path d="m361.929688 124.085938h123.585937c14.628906 0 26.484375 11.855468 26.484375 26.484374v282.480469c0 14.628907-11.855469 26.484375-26.484375 26.484375h-123.585937c-14.625 0-26.480469-11.855468-26.480469-26.484375v-282.480469c0-14.628906 11.855469-26.484374 26.480469-26.484374zm0 0" fill="#bdc3c7"/><path d="m335.449219 177.050781v229.519531h176.550781v-229.519531zm0 0" fill="#2980ba"/><path d="m512 177.050781v5.121094c-37.164062 30.542969-124.203125 108.492187-176.550781 207.535156v-212.65625zm0 0" fill="#3b97d3"/><path d="m370.757812 344.777344h61.792969c4.875 0 8.828125-3.953125 8.828125-8.828125s-3.953125-8.828125-8.828125-8.828125h-61.792969c-4.875 0-8.828124 3.953125-8.828124 8.828125s3.953124 8.828125 8.828124 8.828125zm0 0" fill="#e6e7e8"/><path d="m467.863281 344.777344h8.828125c4.875 0 8.824219-3.953125 8.824219-8.828125s-3.949219-8.828125-8.824219-8.828125h-8.828125c-4.875 0-8.828125 3.953125-8.828125 8.828125s3.953125 8.828125 8.828125 8.828125zm0 0" fill="#e6e7e8"/><path d="m379.585938 362.429688h-8.828126c-4.875 0-8.828124 3.953124-8.828124 8.828124s3.953124 8.828126 8.828124 8.828126h8.828126c4.875 0 8.828124-3.953126 8.828124-8.828126s-3.953124-8.828124-8.828124-8.828124zm0 0" fill="#e6e7e8"/><path d="m476.691406 362.429688h-61.792968c-4.878907 0-8.828126 3.953124-8.828126 8.828124s3.949219 8.828126 8.828126 8.828126h61.792968c4.875 0 8.824219-3.953126 8.824219-8.828126s-3.949219-8.828124-8.824219-8.828124zm0 0" fill="#e6e7e8"/><path d="m379.585938 212.363281h88.277343c4.875 0 8.828125 3.949219 8.828125 8.828125v70.617188c0 4.878906-3.953125 8.828125-8.828125 8.828125h-88.277343c-4.875 0-8.828126-3.949219-8.828126-8.828125v-70.617188c0-4.878906 3.953126-8.828125 8.828126-8.828125zm0 0" fill="#f0c419"/><path d="m432.550781 441.878906v17.65625h-17.652343v-17.65625c0-4.875 3.949218-8.828125 8.824218-8.828125s8.828125 3.953125 8.828125 8.828125zm0 0" fill="#7f8c8d"/></svg>