<svg height="512" viewBox="0 0 512 512" width="512" xmlns="http://www.w3.org/2000/svg"><g id="Flat"><path d="m424 72v128a48 48 0 0 1 -48 48h-96a48 48 0 0 1 -48-48v-128z" fill="#2c86d1"/><rect fill="#348ed8" height="96" rx="48" width="192" x="232" y="24"/><g fill="#4db6e4"><path d="m272 72h-16a24.027 24.027 0 0 1 24-24v16a8.009 8.009 0 0 0 -8 8z"/><path d="m288 144h16v16h-16z"/><path d="m320 144h16v16h-16z"/><path d="m352 144h16v16h-16z"/><path d="m288 208h16v16h-16z"/><path d="m320 208h16v16h-16z"/><path d="m352 208h16v16h-16z"/></g><path d="m424 144v35.77a47.766 47.766 0 0 1 -32 12.23h-128a47.766 47.766 0 0 1 -32-12.23v-35.77a32 32 0 0 0 32 32h128a32 32 0 0 0 32-32z" fill="#2d7dbe"/><path d="m200 288a162.242 162.242 0 0 1 -104-151.427v-40.573a184.953 184.953 0 0 0 102.6-31.063l1.4-.937 1.405.937a184.953 184.953 0 0 0 102.595 31.063v40.573a162.242 162.242 0 0 1 -104 151.427z" fill="#d65246"/><path d="m200 253.075a130.27 130.27 0 0 1 -72-116.5v-10.93a215.833 215.833 0 0 0 72-24.187 215.871 215.871 0 0 0 72 24.187v10.928a130.27 130.27 0 0 1 -72 116.5z" fill="#ba3e2d"/><path d="m192 128h16v16h-16z" fill="#d65246"/><path d="m192 208h16v16h-16z" fill="#d65246"/><path d="m152 144h16v16h-16z" fill="#d65246"/><path d="m232 144h16v16h-16z" fill="#d65246"/><path d="m160 176h16v16h-16z" fill="#d65246"/><path d="m224 176h16v16h-16z" fill="#d65246"/><path d="m424 312h-160v-24h-16v24h-160a8 8 0 0 0 -8 8v32h16v-24h152v24h16v-24h152v24h16v-32a8 8 0 0 0 -8-8z" fill="#95c2da"/><rect fill="#348ed8" height="80" rx="16" width="128" x="24" y="376"/><path d="m112 488h-48l8-32h32z" fill="#2c86d1"/><path d="m108 472h-40l4-16h32z" fill="#2d7dbe"/><path d="m48 480h80v16h-80z" fill="#348ed8"/><path d="m48 400h16v32h-16z" fill="#459ce5"/><rect fill="#348ed8" height="80" rx="16" width="128" x="192" y="376"/><path d="m280 488h-48l8-32h32z" fill="#2c86d1"/><path d="m276 472h-40l4-16h32z" fill="#2d7dbe"/><path d="m216 480h80v16h-80z" fill="#348ed8"/><path d="m216 400h16v32h-16z" fill="#459ce5"/><rect fill="#348ed8" height="80" rx="16" width="128" x="352" y="376"/><path d="m440 488h-48l8-32h32z" fill="#2c86d1"/><path d="m436 472h-40l4-16h32z" fill="#2d7dbe"/><path d="m376 480h80v16h-80z" fill="#348ed8"/><path d="m376 400h16v32h-16z" fill="#459ce5"/></g></svg>